<svg width="760" height="129" viewBox="0 0 760 129" fill="none" xmlns="http://www.w3.org/2000/svg">
<path d="M175.958 96.2482H144.176V33.2012H173.776C184.331 33.2012 191.701 40.2234 191.701 50.2854C191.701 56.501 188.933 61.4853 184.331 63.8628C190.139 66.1809 193.883 72.0313 193.883 79.1724C193.883 89.226 186.513 96.2566 175.958 96.2566V96.2482ZM155.087 58.7681H177.113C179.406 57.2737 180.722 54.6499 180.722 51.211C180.722 45.8276 177.274 42.3462 171.942 42.3462H155.095V58.7766L155.087 58.7681ZM174.116 87.1117C179.533 87.1117 182.896 83.6812 182.896 78.162C182.896 73.755 180.56 70.6557 176.799 69.6623H155.087V87.1117H174.116Z" fill="#FF6600"/>
<path d="M243.98 48.4941V72.5496C243.98 85.8214 233.799 96.6221 221.283 96.6221C208.767 96.6221 198.586 85.8214 198.586 72.5496V48.4941H209.081V72.5496C209.081 80.0389 214.558 86.1355 221.283 86.1355C228.008 86.1355 233.485 80.0389 233.485 72.5496V48.4941H243.98Z" fill="#FF6600"/>
<path d="M292.645 33.2012V95.4075H282.261V93.6923C278.958 95.6708 275.145 96.8086 271.103 96.8086C258.579 96.8086 248.406 85.9993 248.406 72.7276C248.406 59.4559 258.587 48.6636 271.103 48.6636C275.145 48.6636 278.958 49.7844 282.261 51.7544V33.2012H292.645ZM282.261 72.6682C282.261 72.6682 282.261 72.6342 282.261 72.6172C282.261 72.2776 282.244 71.9124 282.21 71.5303C282.193 71.3435 282.176 71.1567 282.159 70.9784C282.142 70.8595 282.133 70.7492 282.116 70.6303C281.946 69.3821 281.641 68.1933 281.208 67.081C280.036 63.9562 277.76 60.8569 273.778 59.6512C272.946 59.3795 272.071 59.2097 271.18 59.1587C271.154 59.1587 271.137 59.1587 271.112 59.1502C271.078 59.1502 271.044 59.1502 271.01 59.1502C270.865 59.1502 270.73 59.1247 270.585 59.1247C270.475 59.1247 270.373 59.1417 270.271 59.1417C269.991 59.1417 269.702 59.1587 269.43 59.1927C269.405 59.1927 269.379 59.1927 269.354 59.2012C267.8 59.371 266.34 59.9144 265.032 60.7635C265.015 60.772 264.998 60.789 264.973 60.7975C264.692 60.9758 264.412 61.1711 264.149 61.3749C263.937 61.5362 263.733 61.7145 263.538 61.8929C263.47 61.9523 263.393 62.0117 263.325 62.0797C260.634 64.5676 258.901 68.4056 258.901 72.7191C258.901 72.7191 258.901 72.7531 258.901 72.7616C258.918 79.9706 263.758 85.838 269.855 86.271C270.093 86.288 270.33 86.3135 270.568 86.3135C270.645 86.3135 270.721 86.305 270.797 86.2965C270.899 86.2965 270.993 86.3135 271.095 86.305C271.315 86.305 271.519 86.2625 271.732 86.2456C271.748 86.2456 271.765 86.2456 271.791 86.2456C274.033 86.0248 275.884 85.0992 277.361 83.7746C280.316 81.3122 282.252 77.2874 282.252 72.7276C282.252 72.7106 282.252 72.6936 282.252 72.6682H282.261Z" fill="#FF6600"/>
<path d="M343.069 48.4955V94.2874C343.069 106.141 334.85 113.8 322.121 113.8C321.595 113.8 321.094 113.783 320.585 113.749V104.587C321.145 104.638 321.722 104.672 322.3 104.672C328.787 104.672 332.667 100.681 332.667 94.0412V93.3024C329.237 95.5101 325.221 96.8008 320.916 96.8008C308.391 96.8008 298.219 86.0085 298.219 72.7368C298.219 59.4651 308.4 48.6558 320.916 48.6558C325.221 48.6558 329.237 49.9465 332.667 52.1712V48.487L343.069 48.4955ZM332.752 72.7283C332.752 65.0013 327.335 58.7348 320.635 58.7348C313.936 58.7348 308.536 64.9928 308.536 72.7283C308.536 80.4638 313.953 86.7387 320.635 86.7387C327.318 86.7387 332.752 80.4807 332.752 72.7283Z" fill="#FF6600"/>
<path d="M358.948 75.734C360.205 81.8561 365.138 86.3989 371.031 86.3989C375.438 86.3989 379.318 83.8431 381.509 79.9796H392.403C389.465 89.5491 380.999 96.4525 371.031 96.4525C358.634 96.4525 348.555 85.7706 348.555 72.6007C348.555 59.4309 358.625 48.749 371.031 48.749C380.999 48.749 389.482 55.6778 392.403 65.2389C393.116 67.5485 393.507 70.0279 393.507 72.6007C393.507 73.6706 393.439 74.6981 393.295 75.734H358.948ZM381.509 65.2389C379.344 61.3754 375.455 58.8026 371.031 58.8026C366.607 58.8026 362.726 61.3754 360.553 65.2389H381.5H381.509Z" fill="#FF6600"/>
<path d="M416.149 85.8213V96.3164H411.98C404.524 96.3164 398.453 90.2537 398.453 82.79V48.4958L408.948 37.999V50.7103H415.843V61.2054H408.948V82.79C408.948 84.4628 410.307 85.8213 411.98 85.8213H416.149Z" fill="#FF6600"/>
<path d="M433.006 51.8146C433.006 47.6709 435.035 43.1961 438.44 39.7996C441.446 36.7937 446.906 33.2104 455.737 33.2104H455.822C463.252 33.2274 469.093 35.52 473.186 40.0289C478.587 45.9727 478.926 53.6742 478.833 56.4848H468.321C468.372 55.7885 468.533 50.4475 465.366 47.0426C463.353 44.8434 460.118 43.7225 455.796 43.7055H455.728C450.481 43.7055 447.458 45.633 445.828 47.2379C444.223 48.8512 443.484 50.7023 443.484 51.8061C443.484 53.6742 443.484 56.4763 455.618 60.4247L457.783 61.104C467.455 64.2033 478.4 67.6931 479.045 77.3136C479.147 78.9354 479.147 84.6585 474.536 89.5919C470.444 93.9818 464.236 96.198 456.068 96.198H456.034C449.385 96.198 443.654 93.9563 439.434 89.6938C435.273 85.5161 432.93 79.6402 432.997 73.586L443.493 73.7049C443.459 76.9061 444.715 80.1412 446.889 82.3064C449.131 84.5651 452.188 85.7029 456.034 85.7029H456.051C461.12 85.7029 464.865 84.5651 466.86 82.4338C468.711 80.4384 468.592 78.1118 468.575 78.0099C468.423 75.5135 459.082 72.5331 454.599 71.0981L452.374 70.3848C438.61 65.91 432.98 60.5351 432.98 51.8146H433.006Z" fill="#FF6600"/>
<path d="M493.296 75.7345C494.552 81.8566 499.486 86.3994 505.379 86.3994C509.785 86.3994 513.666 83.8435 515.857 79.9801H526.751C523.813 89.5496 515.347 96.4529 505.379 96.4529C492.981 96.4529 482.902 85.771 482.902 72.6012C482.902 59.4314 492.973 48.7495 505.379 48.7495C515.347 48.7495 523.83 55.6783 526.751 65.2394C527.464 67.549 527.855 70.0284 527.855 72.6012C527.855 73.6711 527.787 74.6985 527.642 75.7345H493.296ZM515.857 65.2394C513.691 61.3759 509.802 58.8031 505.379 58.8031C500.955 58.8031 497.074 61.3759 494.9 65.2394H515.848H515.857Z" fill="#FF6600"/>
<path d="M565.159 77.9916H576.054C573.795 88.7499 564.718 96.8081 553.9 96.8081C541.376 96.8081 531.203 86.0158 531.203 72.7441C531.203 59.4724 541.384 48.6631 553.9 48.6631C564.726 48.6631 573.803 56.7467 576.054 67.4965H565.159C563.308 62.5971 558.952 59.1582 553.9 59.1582C547.167 59.1582 541.69 65.2633 541.69 72.7441C541.69 80.2248 547.167 86.313 553.9 86.313C558.952 86.313 563.308 82.8656 565.159 77.9916Z" fill="#FF6600"/>
<path d="M625.765 48.103V72.2434C625.765 85.5152 615.584 96.3159 603.068 96.3159C590.552 96.3159 580.371 85.5152 580.371 72.2434V48.1879H590.866V72.2434C590.866 79.7327 596.343 85.8293 603.068 85.8293C609.793 85.8293 615.27 79.7327 615.27 72.2434V48.103H625.765Z" fill="#FF6600"/>
<path d="M656.459 48.0186V58.5561H642.644V96.2569H632.242V48.0186H656.451H656.459Z" fill="#FF6600"/>
<path d="M659.801 39.2813C659.801 35.9273 662.526 33.2017 665.88 33.2017C669.234 33.2017 671.96 35.9358 671.96 39.2813C671.96 42.6269 669.234 45.361 665.88 45.361C662.526 45.361 659.801 42.6354 659.801 39.2813ZM660.641 96.2571V48.0188H671.043V96.2571H660.641Z" fill="#FF6600"/>
<path d="M695.969 85.8218V96.3169H691.8C684.345 96.3169 678.273 90.2542 678.273 82.7905V48.4944L688.769 37.9995V50.7108H695.663V61.2059H688.769V82.7905C688.769 84.4632 690.127 85.8218 691.8 85.8218H695.969Z" fill="#FF6600"/>
<path d="M747.379 48.0186L726.644 111.711H714.977L724.597 82.1361H712.939L697.918 48.0186H709.585L724.606 82.1361L735.704 48.0186H747.388H747.379Z" fill="#FF6600"/>
<path d="M750.295 31.7965C749.393 31.2675 748.686 30.5551 748.167 29.6541C747.648 28.7532 747.391 27.7685 747.391 26.6999C747.391 25.6313 747.648 24.6466 748.167 23.7457C748.686 22.8447 749.393 22.1323 750.295 21.6033C751.197 21.0743 752.193 20.8071 753.283 20.8071C754.374 20.8071 755.37 21.0743 756.272 21.6033C757.173 22.1323 757.881 22.8447 758.4 23.7457C758.919 24.6466 759.176 25.6313 759.176 26.6999C759.176 27.7685 758.919 28.7532 758.4 29.6541C757.881 30.5551 757.173 31.2675 756.272 31.7965C755.37 32.3255 754.374 32.5927 753.283 32.5927C752.193 32.5927 751.197 32.3308 750.295 31.7965ZM755.658 30.8327C756.377 30.4032 756.948 29.8218 757.367 29.0884C757.787 28.3551 757.997 27.5589 757.997 26.6999C757.997 25.8409 757.787 25.0395 757.367 24.3114C756.948 23.5833 756.377 23.0019 755.658 22.5671C754.94 22.1376 754.148 21.9228 753.283 21.9228C752.418 21.9228 751.627 22.1376 750.908 22.5671C750.19 22.9966 749.619 23.578 749.199 24.3114C748.78 25.0447 748.57 25.8409 748.57 26.6999C748.57 27.5589 748.78 28.3604 749.199 29.0884C749.619 29.8218 750.19 30.3979 750.908 30.8327C751.627 31.2622 752.418 31.477 753.283 31.477C754.148 31.477 754.94 31.2622 755.658 30.8327ZM751.123 23.3633H753.236C754.033 23.3633 754.646 23.5519 755.071 23.9342C755.496 24.3166 755.711 24.8404 755.711 25.5056C755.711 25.9299 755.611 26.2966 755.407 26.6004C755.202 26.9042 754.903 27.1713 754.5 27.4018L755.842 30.0365H754.694L753.483 27.6166H752.172V30.0365H751.123V23.3633ZM753.268 26.6685C753.703 26.6685 754.044 26.569 754.285 26.3751C754.526 26.1813 754.646 25.8828 754.646 25.4899C754.646 24.7042 754.19 24.3114 753.273 24.3114H752.177V26.6685H753.273H753.268Z" fill="#FF6600"/>
<path fill-rule="evenodd" clip-rule="evenodd" d="M6.81097 6.81097C0 13.6219 0 24.584 0 46.5082V82.2838C0 104.208 0 115.17 6.81097 121.981C13.6219 128.792 24.584 128.792 46.5082 128.792H82.2838C104.208 128.792 115.17 128.792 121.981 121.981C128.792 115.17 128.792 104.208 128.792 82.2838V46.5082C128.792 24.584 128.792 13.6219 121.981 6.81097C115.17 0 104.208 0 82.2838 0H46.5082C24.584 0 13.6219 0 6.81097 6.81097ZM27.0702 104.009H38.9578V104.003L53.1884 89.7726C54.2324 88.7345 54.2324 87.0439 53.1884 85.9999C52.1503 84.9559 50.4597 84.9559 49.4157 85.9999L36.7451 98.6705H27.0702C25.5931 98.6705 24.4008 99.8628 24.4008 101.34C24.4008 102.817 25.5931 104.009 27.0702 104.009ZM90.0488 104.009H101.936C103.413 104.009 104.606 102.817 104.606 101.34C104.606 99.8628 103.413 98.6705 101.936 98.6705H92.2614L79.5908 85.9999C78.5468 84.9559 76.8562 84.9559 75.8181 85.9999C74.7741 87.0439 74.7741 88.7345 75.8181 89.7726L90.0488 104.003V104.009ZM74.9366 106.785C74.9366 108.422 76.2654 109.751 77.9026 109.751L77.8966 109.745C79.5338 109.745 80.8626 108.417 80.8626 106.779V101.393C80.8626 100.521 80.5126 99.6907 79.9016 99.0738L66.6794 85.8159C65.4989 84.6296 63.5829 84.6236 62.3906 85.7982L48.9667 99.056C48.3438 99.6729 47.9938 100.515 47.9938 101.393V106.779C47.9938 108.417 49.3226 109.745 50.9598 109.745C52.597 109.745 53.9257 108.417 53.9257 106.779V103.873C53.9257 102.995 54.2757 102.152 54.8986 101.536L62.3609 94.1681C63.5532 92.9936 65.4693 92.9995 66.6497 94.1859L73.9756 101.53C74.5926 102.147 74.9366 102.983 74.9366 103.849V106.785ZM88.3184 76.9364V81.8421L81.7221 75.2458C81.4611 74.9848 81.4611 74.5636 81.7221 74.3026L91.1716 64.8531C92.5834 63.4413 93.3724 61.5312 93.3724 59.5381V36.6231C93.3724 34.63 92.5775 32.7139 91.1716 31.3081L81.1111 21.2416C79.6993 19.8298 77.7892 19.0409 75.7961 19.0409H53.2845C51.2913 19.0409 49.3753 19.8357 47.9695 21.2416L37.9089 31.3021C36.4971 32.7139 35.7082 34.624 35.7082 36.6171V59.5262C35.7082 61.5193 36.5031 63.4353 37.9089 64.8412L47.3585 74.2908C47.6195 74.5518 47.6195 74.9729 47.3585 75.2339L40.7622 81.8302V76.9245C40.7622 75.4475 39.5699 74.2552 38.0928 74.2552C36.6158 74.2552 35.4235 75.4475 35.4235 76.9245V83.8411C35.4235 87.8571 40.2758 89.868 43.1172 87.0266L53.1124 77.0313C54.37 75.7737 54.37 73.745 53.1124 72.4875L43.2477 62.6227C41.8359 61.2109 41.0469 59.3008 41.0469 57.3077V38.8238C41.0469 36.8307 41.8418 34.9147 43.2477 33.5088L50.1821 26.5744C51.5939 25.1626 53.504 24.3737 55.4971 24.3737H73.5835C75.5766 24.3737 77.4926 25.1685 78.8985 26.5744L85.8329 33.5088C87.2447 34.9206 88.0337 36.8307 88.0337 38.8238V57.3077C88.0337 59.3008 87.2388 61.2168 85.8329 62.6227L75.9681 72.4875C74.7165 73.745 74.7165 75.7737 75.9681 77.0313L85.9634 87.0266C88.7989 89.862 93.6571 87.8571 93.6571 83.8411V76.9245C93.6571 75.4475 92.4648 74.2552 90.9877 74.2552C89.5107 74.2552 88.3184 75.4475 88.3184 76.9245V76.9364ZM53.9704 34.6909C50.6485 34.6909 47.9554 37.384 47.9554 40.7059C47.9554 42.5847 48.8168 42.0764 50.1663 41.2802C51.2028 40.6687 52.5273 39.8873 53.9704 39.8873C55.4135 39.8873 56.7379 40.6687 57.7744 41.2802C59.1239 42.0764 59.9853 42.5847 59.9853 40.7059C59.9853 37.384 57.2922 34.6909 53.9704 34.6909ZM69.5185 40.7059C69.5185 37.384 72.2116 34.6909 75.5335 34.6909C78.8554 34.6909 81.5485 37.384 81.5485 40.7059C81.5485 42.5847 80.687 42.0764 79.3376 41.2802C78.3011 40.6687 76.9766 39.8873 75.5335 39.8873C74.0904 39.8873 72.766 40.6687 71.7294 41.2802C70.38 42.0764 69.5185 42.5847 69.5185 40.7059ZM56.269 54.9605H72.7976H72.8009C73.532 54.9605 74.0328 55.5882 74.0328 56.3193C74.0328 61.9779 70.5074 66.1042 64.535 66.1042C58.1285 66.1042 55.0371 61.7342 55.0371 56.3193C55.0371 55.5882 55.5379 54.9605 56.269 54.9605ZM59.3237 63.3233C60.8159 64.3148 62.6087 64.8924 64.535 64.8924C66.4612 64.8924 68.254 64.3148 69.7462 63.3233C68.254 61.9679 66.4612 61.1767 64.535 61.1767C62.6087 61.1767 60.8159 61.9679 59.3237 63.3233Z" fill="#FF6600"/>
</svg>
